<svg xmlns="http://www.w3.org/2000/svg" viewBox="0 0 200 200" width="200" height="200">
  <!-- Fondo -->
  <rect width="200" height="200" fill="#f8f9fa"/>
  
  <!-- Zapato -->
  <g>
    <!-- Suela -->
    <ellipse cx="100" cy="140" rx="70" ry="20" fill="#2c3e50"/>
    
    <!-- Talón -->
    <rect x="75" y="120" width="50" height="25" rx="5" fill="#e74c3c"/>
    
    <!-- Cuerpo del zapato -->
    <path d="M 50 120 Q 40 100 45 80 Q 50 60 70 50 Q 100 40 130 50 Q 150 60 155 80 Q 160 100 150 120 Z" fill="#34495e"/>
    
    <!-- Parte frontal/punta -->
    <ellipse cx="130" cy="110" rx="35" ry="25" fill="#3d5a80"/>
    
    <!-- Detalle costado -->
    <path d="M 55 90 Q 60 80 75 70" stroke="#e74c3c" stroke-width="3" fill="none" stroke-linecap="round"/>
    
    <!-- Cordones -->
    <line x1="85" y1="75" x2="85" y2="105" stroke="#ecf0f1" stroke-width="2"/>
    <line x1="100" y1="75" x2="100" y2="105" stroke="#ecf0f1" stroke-width="2"/>
    <line x1="115" y1="75" x2="115" y2="105" stroke="#ecf0f1" stroke-width="2"/>
    
    <!-- Brillo/luz -->
    <ellipse cx="110" cy="70" rx="15" ry="10" fill="#ecf0f1" opacity="0.3"/>
  </g>
</svg>
